# xmcd
#
# Track frame offsets: 
#        150
#        18215
#        37105
#        54905
#        74152
#        91692
#        110662
#        128445
#        146102
#        163750
#        181722
#        199380
#        217960
#        235792
#        254095
#        271700
#        290170
#        309475
#        338727
#
# Disc length: 4619 seconds
#
# Revision: 4
# Processed by: cddbd v1.5.2PL0 Copyright (c) Steve Scherf et al.
# Submitted via: ExactAudioCopy v1.0b3
#
DISCID=1b120913
DTITLE=Various Artist - EUROBEAT FLASH Vol.11
DYEAR=1997
DGENRE=Eurobeat
TTITLE0=JIMMY BRAVO - DIABLO MAN
TTITLE1=DOLL SISTERS - BABY KISS ME ALL NIGHT
TTITLE2=DEE DEE WONDER - HONKY TONKY RADIO
TTITLE3=E.C. JAMES - READY FOR YOU
TTITLE4=MARA NELL - RED FERRARI
TTITLE5=DONNA LEE - SMOOTH OPERATOR
TTITLE6=DEBBY - TELL ME WHY
TTITLE7=BETTY BLUE - HOOTCHIE COOTCHIE GIRL
TTITLE8=MADDY LAYNE - WAKE UP AND DANCE
TTITLE9=BLACK EVA - LOVE ON INTERNET
TTITLE10=DAVID BIRD - HEROES TONIGHT
TTITLE11=LUNA - CRASH IN MY HEART
TTITLE12=DOLLY - RUN 4 FUN
TTITLE13=FRANZ TORNADO - MAD COW
TTITLE14=MILK AND COFFEA - LOVE ME TWICE
TTITLE15=STOP LIMIT LINE - SATISFACTION
TTITLE16=HANAKO KATAGIRI - 'CAUSE THE NIGHT
TTITLE17=MIKI SATO - IN THE DARK OF MY HEART
TTITLE18=DATA TRACK - Various Artists
EXTD=YEAR: 1997
EXTT0=
EXTT1=
EXTT2=
EXTT3=
EXTT4=
EXTT5=
EXTT6=
EXTT7=
EXTT8=
EXTT9=
EXTT10=
EXTT11=
EXTT12=
EXTT13=
EXTT14=
EXTT15=
EXTT16=
EXTT17=
EXTT18=
PLAYORDER=
